<svg t="1712739927794" class="icon" viewBox="0 0 1024 1024" version="1.1" xmlns="http://www.w3.org/2000/svg" p-id="7933" width="200" height="200"><path d="M256 138.666667v64H160v106.666666h704v-106.666666H768v-64h160v789.333333h-832v-789.333333H256z m608 234.666666h-704v490.666667h704v-490.666667zM277.333333 682.666667a42.666667 42.666667 0 1 1 0 85.333333 42.666667 42.666667 0 0 1 0-85.333333z m234.666667 0a42.666667 42.666667 0 1 1 0 85.333333 42.666667 42.666667 0 0 1 0-85.333333z m234.666667 0a42.666667 42.666667 0 1 1 0 85.333333 42.666667 42.666667 0 0 1 0-85.333333zM277.333333 469.333333a42.666667 42.666667 0 1 1 0 85.333334 42.666667 42.666667 0 0 1 0-85.333334z m234.666667 0a42.666667 42.666667 0 1 1 0 85.333334 42.666667 42.666667 0 0 1 0-85.333334z m234.666667 0a42.666667 42.666667 0 1 1 0 85.333334 42.666667 42.666667 0 0 1 0-85.333334zM362.666667 85.333333v170.666667h-64V85.333333h64z m362.666666 0v170.666667h-64V85.333333h64z m-106.666666 53.333334v64H405.333333v-64h213.333334z" fill="#8a8a8a" p-id="7934"></path></svg>