<svg t="1710828294780" class="icon" viewBox="0 0 1067 1024" version="1.1" xmlns="http://www.w3.org/2000/svg" p-id="5133" width="200" height="200"><path d="M607.199583 45.996682l101.053164 204.674619a82.377439 82.377439 0 0 0 61.99289 45.005767l225.787187 32.760881c67.574374 9.828264 94.500987 92.812386 45.602338 140.487559L878.225098 628.220239a82.316771 82.316771 0 0 0-23.660636 72.913184l38.585038 224.927719c11.516865 67.331701-59.090923 118.646971-119.506438 86.866893l-201.995102-106.169523a82.377439 82.377439 0 0 0-76.674619 0l-201.995103 106.169523c-60.425626 31.780077-131.033415-19.535192-119.506438-86.866893l38.585039-224.927719a82.316771 82.316771 0 0 0-23.660637-72.913184L24.976027 469.046844c-48.888538-47.675172-21.951813-130.659294 45.622561-140.487558l225.766964-32.75077a82.427996 82.427996 0 0 0 62.003002-45.015878L459.543054 45.996682c30.212813-61.264871 117.443716-61.264871 147.626195 0z m0 0" fill="#bfbfbf" p-id="5134"></path></svg>