<svg t="1711281704127" class="icon" viewBox="0 0 1024 1024" version="1.1" xmlns="http://www.w3.org/2000/svg" p-id="3146" width="200" height="200"><path d="M515.684414 63.83998l-3.767813 0c-243.172345 0-442.640306 201.264886-444.658266 444.482257-0.98749 118.807896 44.353161 232.565776 127.654378 317.265854 83.311451 84.691891 194.610326 134.570905 313.421292 134.570905l3.736091 0c243.162112 0 442.650539-201.289446 444.668499-444.502723C958.746322 270.456758 760.894162 78.059843 515.684414 63.83998zM928.279427 515.436262c-1.883907 227.644697-188.608635 416.273798-416.208307 416.273798l-3.499707-0.030699c-111.205754-0.915859-215.381395-45.072545-293.370631-124.359332-77.969792-79.266321-120.397091-187.580213-119.481232-298.754245 1.883907-227.67028 188.588169-416.268682 416.198074-416.268682l3.530406 0C744.971517 106.520035 930.172543 285.896402 928.279427 515.436262zM526.2654 509.61979l2.623757-316.740898c0.072655-7.848759-6.247284-15.21861-14.111392-15.21861l-0.112564 0c-7.801686 0-14.153348 7.175423-14.224979 15.002692l-2.664689 322.19205c-0.030699 3.756557 1.440815 7.606235 4.086062 10.29753l175.443801 178.475857c2.7793 2.850931 6.463202 4.301979 10.137895 4.301979 3.603061 0 7.216355-1.327228 9.984399-4.055362 5.599532-5.496178 5.682419-14.492062 0.164752-20.091594L526.2654 509.61979z" p-id="3147" fill="#bfbfbf"></path></svg>