<svg t="1711098666205" class="icon" viewBox="0 0 1024 1024" version="1.1" xmlns="http://www.w3.org/2000/svg" p-id="23723" width="200" height="200"><path d="M883.968 241.824L560 54.752a97.632 97.632 0 0 0-96 0L140.032 241.824a96.192 96.192 0 0 0-48 83.136v374.112c0 34.144 18.4 65.984 48 83.136L464 969.248a96.224 96.224 0 0 0 96 0l323.968-187.072a96.256 96.256 0 0 0 48-83.136v-374.08a96.192 96.192 0 0 0-48-83.136z m-367.008 395.84L304.96 506.4l207.2-130.208 212 131.296-207.2 130.176z m351.008-312.704v196.288l-295.488-182.976 167.872-105.472 111.648 64.448c9.856 5.696 15.968 16.288 15.968 27.712zM172 297.248L496 110.176a32.192 32.192 0 0 1 32 0.032l149.664 86.4-433.312 272.288-88.352-54.688v-89.216c0-11.424 6.144-22.048 16-27.744z m-16 401.824v-209.6l300.608 186.144-178.688 112.288-105.888-61.152a32.064 32.064 0 0 1-16.032-27.68z m695.968 27.68L528 913.824a32.416 32.416 0 0 1-32 0l-155.392-89.728 444.16-279.072 83.232 51.552v102.528a32.128 32.128 0 0 1-16.032 27.648z" p-id="23724" fill="#bfbfbf"></path></svg>