<svg t="1711070418587" class="icon" viewBox="0 0 1024 1024" version="1.1" xmlns="http://www.w3.org/2000/svg" p-id="4306" width="200" height="200"><path d="M847.9110001-4360.02401097m-537.45760013 6e-8a537.45760212 537.45760212 0 1 0 1074.91520224 0 537.45760212 537.45760212 0 1 0-1074.91520224 0Z" fill="#bfbfbf" p-id="4307"></path><path d="M712.65083869 311.67910311l71.66101332 71.66101333-265.14575024 200.65083868-265.14575026-200.65083868 71.66101335-71.66101333 193.48473691 136.15592712 193.48473692-136.15592712z m164.82032982 157.65423023l71.66101334 64.49491159 7.16610179 7.16610178-429.96608011 329.64066181-429.96608223-329.64066181 71.66101332-71.66101337 358.30506891 257.97964849 351.13896498-257.97964849z m-358.30506674-336.80676358l107.49152001 107.49152002-107.49152001 71.66101333-107.49152-71.66101333 107.49152-107.49152002z" fill="#bfbfbf" p-id="4308"></path><path d="M1486.06320857-2611.33482639L883.07169743-3214.32633748H-462.06320857v1948.12641713h1948.12641714V-2611.33482639zM-322.91132207-1405.35180692V-3075.17445096h1150.32226435l519.50037979 519.50037976V-1405.35180692H-322.91132207z" fill="#bfbfbf" p-id="4309"></path></svg>