<svg t="1711098579748" class="icon" viewBox="0 0 1024 1024" version="1.1" xmlns="http://www.w3.org/2000/svg" p-id="18168" width="200" height="200"><path d="M82.354 375.92l412.07 243.496c5.619 3.746 12.174 5.619 18.73 5.619 6.556 0 13.111-1.873 18.731-5.619l412.07-243.496c11.239-6.556 18.731-18.73 18.731-31.841s-6.556-25.287-18.731-31.842L531.886 68.74c-12.176-6.556-26.224-6.556-38.398 0L81.417 312.236c-11.238 6.556-18.73 18.731-18.73 31.842 0.936 13.111 7.491 25.286 19.667 31.842z m430.8-232.258l338.085 200.417-338.085 200.415-338.085-200.415 338.085-200.417z m430.801 337.149l-18.73-11.238-412.07 243.496-412.072-243.497-18.73 11.238c-11.239 6.556-18.731 18.731-18.731 31.842 0 13.111 6.556 25.286 18.731 31.841l412.07 243.497c5.619 3.745 12.174 5.618 18.73 5.618 6.556 0 13.111-1.873 18.731-5.618l412.069-243.497c11.239-6.556 18.731-18.73 18.731-31.841 0.003-13.11-6.553-25.286-18.729-31.841z m0 168.574l-18.73-11.238-412.07 243.497-412.072-243.498-18.73 11.238c-11.239 6.556-18.731 18.731-18.731 31.843s6.556 25.285 18.731 31.841l412.07 243.497c5.619 3.745 12.174 5.619 18.73 5.619 6.556 0 13.111-1.874 18.731-5.619l412.069-243.497c11.239-6.556 18.731-18.729 18.731-31.841s-6.553-25.287-18.729-31.842z" p-id="18169" fill="#bfbfbf"></path></svg>